<svg version="1.1" id="Layer_1" xmlns="http://www.w3.org/2000/svg" xmlns:xlink="http://www.w3.org/1999/xlink" x="0px" y="0px"
	 width="100%" viewBox="0 0 1501 1238" enable-background="new 0 0 1501 1238" xml:space="preserve">
<path fill="none" opacity="1.000000" stroke="#000000" stroke-linecap="round" stroke-linejoin="round" stroke-width="13.000000"
	d="
M1469.500000,1145.000000 
	C1466.431274,1144.927856 1463.338989,1144.937866 1461.526245,1148.015503 
	C1460.445923,1149.849487 1458.824463,1148.942627 1457.499756,1148.950684 
	C1444.166870,1149.031738 1430.833008,1148.937134 1417.500122,1149.015625 
	C1399.999756,1149.118774 1382.491455,1149.045898 1365.001953,1149.564575 
	C1335.503784,1150.439209 1306.003540,1150.401489 1276.500244,1150.545044 
	C1256.832397,1150.640869 1237.155273,1150.865723 1217.504028,1151.608032 
	C1204.827393,1152.087036 1192.166626,1151.851562 1179.499756,1151.977661 
	C1155.000488,1152.221313 1130.484131,1151.849976 1106.005127,1152.656494 
	C1087.165039,1153.277344 1068.326904,1153.060181 1049.503906,1153.627930 
	C1036.828613,1154.010010 1024.166504,1153.835083 1011.499756,1153.979980 
	C990.500610,1154.220215 969.469849,1153.692261 948.508423,1154.678345 
	C927.160156,1155.682617 905.823059,1154.875610 884.503296,1155.597534 
	C866.662354,1156.201660 848.832092,1155.710693 831.000122,1156.005615 
	C812.333008,1156.314453 793.654663,1156.364380 775.004150,1157.105103 
	C762.327393,1157.608765 749.666565,1157.336670 736.999756,1157.479736 
	C715.667297,1157.720581 694.332397,1157.759644 673.000305,1158.022705 
	C654.832275,1158.246948 636.654358,1158.363892 618.504211,1159.103516 
	C605.827393,1159.620117 593.166565,1159.347900 580.499756,1159.478027 
	C556.833862,1159.721069 533.165833,1159.755981 509.500275,1160.024658 
	C490.998871,1160.234619 472.487854,1160.360840 454.003754,1161.094604 
	C438.661896,1161.703735 423.333099,1161.310547 407.999786,1161.481079 
	C386.333954,1161.721924 364.639099,1161.218384 343.008392,1162.187622 
	C324.493073,1163.017212 306.001740,1162.776245 287.499878,1162.989746 
	C269.000427,1163.203369 250.499207,1163.273193 232.000214,1163.516479 
	C212.165939,1163.777100 192.329086,1164.016846 172.502243,1164.578979 
	C165.301590,1164.783081 158.067123,1163.986572 151.012238,1164.287109 
	C127.173424,1165.302856 103.343208,1165.472168 79.500000,1165.498779 
	C73.000008,1165.506104 66.499725,1165.464844 60.000122,1165.515503 
	C56.996529,1165.538940 54.008259,1165.522461 50.987026,1165.894775 
	C47.919598,1166.272583 44.620422,1166.712646 41.963570,1164.036133 
	C40.385399,1162.446289 38.154236,1162.536133 36.001068,1162.466797 
	C29.668169,1162.262939 23.308588,1163.107056 17.000000,1162.000000 
"/>
<path fill="none" opacity="1.000000" stroke="#000000" stroke-linecap="round" stroke-linejoin="round" stroke-width="9.000000"
	d="
M1243.500000,192.000000 
	C1197.385864,196.300919 1151.165649,193.306229 1104.998657,193.896667 
	C1056.004517,194.523239 1006.981140,193.556488 958.005920,194.744598 
	C918.492065,195.703217 878.991882,194.682846 839.502258,195.597931 
	C814.496338,196.177383 789.499878,195.814651 764.499817,195.976105 
	C724.833740,196.232315 685.158936,195.902985 645.502075,196.614853 
	C601.333618,197.407684 557.163391,197.048889 513.001831,197.636871 
	C479.997467,198.076294 446.999329,197.696533 413.999878,197.986572 
	C412.326416,198.001282 410.633484,197.707947 408.993652,197.624237 
	C405.641266,197.453125 401.998962,198.295380 401.165985,202.036957 
	C400.576874,204.683060 398.903809,206.224792 397.447021,207.955414 
	C385.875488,221.702133 374.230103,235.388382 362.452728,248.958984 
	C359.713440,252.115372 356.928741,255.641296 352.000000,255.500000 
"/>
<path fill="none" opacity="1.000000" stroke="#000000" stroke-linecap="round" stroke-linejoin="round" stroke-width="11.000000"
	d="
M263.000000,56.000000 
	C264.831512,58.559250 265.022644,61.451469 265.037933,64.499809 
	C265.127319,82.333534 265.002472,100.177391 265.580322,117.997398 
	C266.374878,142.501343 265.510773,167.005066 266.040955,191.499115 
	C267.101471,240.496216 266.848145,289.499084 267.255096,338.497894 
	C267.304657,344.464691 267.678772,350.474091 267.784332,356.495026 
	C268.175995,378.833862 267.798828,401.166901 267.971466,423.500214 
	C268.111877,441.665802 267.440796,459.853882 268.107391,477.996063 
	C269.932220,527.662048 267.824280,577.352478 269.187805,626.994812 
	C270.483673,674.172485 269.032623,721.344421 270.113434,768.497375 
	C271.278656,819.333496 270.531067,870.168884 271.136536,920.998352 
	C271.341034,938.166565 270.926392,955.346130 271.583679,972.496765 
	C272.292969,991.002747 271.724091,1009.501038 272.002228,1028.000000 
	C272.075562,1032.876221 273.177917,1038.072388 272.880310,1042.458008 
	C272.498627,1048.083130 272.089539,1053.844238 272.087891,1059.500000 
	C272.077942,1093.666626 272.333344,1127.833374 272.500000,1162.000000 
"/>
<path fill="none" opacity="1.000000" stroke="#000000" stroke-linecap="round" stroke-linejoin="round" stroke-width="10.000000"
	d="
M266.000000,199.500000 
	C240.333328,199.500000 214.666626,199.468948 189.000015,199.508759 
	C163.496643,199.548340 138.011490,201.099762 112.500587,200.475937 
	C109.307472,200.397873 106.264839,202.698608 103.000000,201.000000 
"/>
<path fill="none" opacity="1.000000" stroke="#000000" stroke-linecap="round" stroke-linejoin="round" stroke-width="9.000000"
	d="
M401.500000,200.000000 
	C399.444855,198.201828 397.688934,196.919388 394.425659,198.327713 
	C390.921661,199.839905 386.834290,198.622513 382.999847,198.617661 
	C351.000122,198.577164 318.998260,198.698395 287.001404,199.109909 
	C280.325012,199.195801 273.666656,199.673767 267.000000,199.000000 
"/>
<path fill="none" opacity="1.000000" stroke="#000000" stroke-linecap="round" stroke-linejoin="round" stroke-width="8.000000"
	d="
M270.500000,1033.500000 
	C266.856140,1033.010986 264.147552,1034.107056 261.420166,1036.922729 
	C236.396896,1062.756592 211.822220,1089.007324 187.472198,1115.474365 
	C177.975174,1125.797119 168.569885,1136.264771 158.338348,1145.827026 
	C152.812225,1150.991821 150.558945,1156.356934 151.500000,1163.500000 
"/>
<path fill="none" opacity="1.000000" stroke="#000000" stroke-linecap="round" stroke-linejoin="round" stroke-width="13.000000"
	d="
M388.500000,200.500000 
	C388.841736,203.703934 386.867432,205.784103 385.019806,208.016388 
	C374.978119,220.148560 365.020935,232.350647 354.983582,244.486420 
	C352.791443,247.136810 350.885071,249.837799 351.522247,253.496124 
	C351.856445,255.414871 350.545654,256.300171 349.525299,257.521149 
	C336.320465,273.322571 323.183960,289.181091 309.994446,304.995361 
	C299.688843,317.351807 289.235443,329.586853 279.069672,342.056793 
	C276.568420,345.125031 273.682465,347.023682 270.000000,348.000000 
"/>
<path fill="none" opacity="1.000000" stroke="#000000" stroke-linecap="round" stroke-linejoin="round" stroke-width="8.000000"
	d="
M281.500000,1033.000000 
	C289.000000,1040.500000 296.476593,1048.023682 304.014893,1055.484985 
	C306.153656,1057.601929 308.130615,1059.814087 307.948059,1062.997070 
	C307.807617,1065.446045 309.768799,1066.257568 311.040741,1067.456787 
	C323.139069,1078.862671 335.326569,1090.173950 347.501709,1101.498169 
	C363.995026,1116.838745 380.663574,1131.997437 396.855652,1147.649292 
	C399.924469,1150.615845 402.880646,1154.814453 402.000000,1160.000000 
"/>
<path fill="none" opacity="1.000000" stroke="#000000" stroke-linecap="round" stroke-linejoin="round" stroke-width="8.000000"
	d="
M274.000000,1042.500000 
	C277.081024,1042.421631 279.340637,1043.801514 281.553131,1045.945190 
	C287.227386,1051.442749 293.134552,1056.702393 299.015594,1061.982666 
	C301.400574,1064.123901 304.052460,1065.755005 307.500000,1064.500000 
"/>
<path fill="none" opacity="1.000000" stroke="#000000" stroke-linecap="round" stroke-linejoin="round" stroke-width="8.000000"
	d="
M45.000000,1167.000000 
	C38.419563,1172.499878 30.891922,1170.594360 23.500000,1169.750000 
"/>
<path fill="none" opacity="1.000000" stroke="#000000" stroke-linecap="round" stroke-linejoin="round" stroke-width="4.000000"
	d="
M272.500000,1032.500000 
	C275.333344,1032.500000 278.166656,1032.500000 280.999847,1032.479370 
	C281.001068,1032.479370 281.032288,1032.158203 280.991425,1032.002197 
	C280.945190,1031.825928 280.833344,1031.666626 280.750000,1031.500000 
"/>
</svg>