<svg version="1.1" id="Layer_1" xmlns="http://www.w3.org/2000/svg" xmlns:xlink="http://www.w3.org/1999/xlink" x="0px" y="0px"
	 width="100%" viewBox="0 0 1610 1190" enable-background="new 0 0 1610 1190" xml:space="preserve">
<path fill="none" opacity="1.000000" stroke="#000000" stroke-linecap="round" stroke-linejoin="round" stroke-width="13.000000"
	d="
M1565.500000,1132.000000 
	C1562.431274,1131.927856 1559.338989,1131.937866 1557.526245,1135.015503 
	C1556.446045,1136.849609 1554.824463,1135.942627 1553.499756,1135.950684 
	C1540.166870,1136.031738 1526.833008,1135.937134 1513.500122,1136.015625 
	C1495.999756,1136.118774 1478.491455,1136.045898 1461.001953,1136.564453 
	C1431.503784,1137.439087 1402.003540,1137.401489 1372.500244,1137.545044 
	C1352.832397,1137.640869 1333.155273,1137.865723 1313.504028,1138.608032 
	C1300.827393,1139.086914 1288.166626,1138.851562 1275.499756,1138.977539 
	C1251.000488,1139.221191 1226.484009,1138.849731 1202.005127,1139.656372 
	C1183.164917,1140.277100 1164.326904,1140.060181 1145.503906,1140.627930 
	C1132.828613,1141.010010 1120.166504,1140.835083 1107.499756,1140.979980 
	C1086.500610,1141.220459 1065.469849,1140.692627 1044.508423,1141.678711 
	C1023.160156,1142.682983 1001.823059,1141.875488 980.503296,1142.597412 
	C962.662354,1143.201660 944.832092,1142.710693 927.000122,1143.005615 
	C908.333008,1143.314331 889.654663,1143.364380 871.004211,1144.105225 
	C858.327393,1144.608887 845.666565,1144.336792 832.999756,1144.479736 
	C811.667297,1144.720459 790.332397,1144.759521 769.000305,1145.022583 
	C750.832275,1145.246704 732.654358,1145.363770 714.504211,1146.103394 
	C701.827393,1146.619995 689.166565,1146.347900 676.499756,1146.478027 
	C652.833862,1146.721191 629.165833,1146.755981 605.500305,1147.024658 
	C586.998901,1147.234619 568.487854,1147.360840 550.003784,1148.094727 
	C534.661865,1148.703735 519.333069,1148.310791 503.999786,1148.481201 
	C482.333954,1148.722046 460.639099,1148.218506 439.008423,1149.187622 
	C420.493073,1150.017212 402.001740,1149.776123 383.499878,1149.989746 
	C365.000427,1150.203247 346.499207,1150.273071 328.000214,1150.516357 
	C308.165924,1150.777100 288.329102,1151.016846 268.502228,1151.578979 
	C261.301605,1151.783081 254.067108,1150.986450 247.012222,1151.286987 
	C223.173431,1152.302979 199.343201,1152.472290 175.500000,1152.498901 
	C169.000000,1152.506104 162.499725,1152.464966 156.000122,1152.515625 
	C152.996521,1152.538940 150.008240,1152.522217 146.987015,1152.894653 
	C143.919601,1153.272583 140.620438,1153.712646 137.963577,1151.036133 
	C136.385391,1149.446289 134.154236,1149.536133 132.001068,1149.466675 
	C125.668175,1149.262817 119.308586,1150.107056 113.000000,1149.000000 
"/>
<path fill="none" opacity="1.000000" stroke="#000000" stroke-linecap="round" stroke-linejoin="round" stroke-width="11.000000"
	d="
M359.000000,43.000000 
	C360.831512,45.559250 361.022614,48.451473 361.037903,51.499809 
	C361.127319,69.333534 361.002533,87.177391 361.580322,104.997398 
	C362.374908,129.501343 361.510773,154.005066 362.040955,178.499115 
	C363.101471,227.496216 362.848114,276.499084 363.255066,325.497894 
	C363.304626,331.464691 363.678711,337.474091 363.784302,343.495026 
	C364.175995,365.833862 363.798859,388.166901 363.971466,410.500214 
	C364.111877,428.665802 363.440765,446.853882 364.107361,464.996063 
	C365.932220,514.662048 363.823944,564.352478 365.188232,613.994812 
	C366.480225,661.005920 365.040466,708.010925 366.111359,754.997437 
	C367.273773,806.000061 366.539001,857.002075 367.136932,907.998413 
	C367.338226,925.166443 366.926392,942.346130 367.583679,959.496765 
	C368.292969,978.002747 367.724060,996.501038 368.002197,1014.999939 
	C368.075500,1019.876160 369.177917,1025.072388 368.880310,1029.458008 
	C368.498627,1035.083130 368.089539,1040.844238 368.087891,1046.500000 
	C368.077911,1080.666626 368.333313,1114.833374 368.499969,1149.000000 
"/>
<path fill="none" opacity="1.000000" stroke="#000000" stroke-linecap="round" stroke-linejoin="round" stroke-width="9.000000"
	d="
M1339.500000,179.000000 
	C1293.385864,183.300919 1247.165649,180.306213 1200.998657,180.896652 
	C1152.004517,181.523224 1102.981201,180.556503 1054.005981,181.744629 
	C1014.492065,182.703247 974.991882,181.682861 935.502258,182.597931 
	C910.496338,183.177399 885.499878,182.814651 860.499817,182.976120 
	C820.833740,183.232315 781.158936,182.902969 741.502075,183.614838 
	C697.333618,184.407669 653.163452,184.050049 609.001831,184.636093 
	C575.830872,185.076294 542.666016,184.702560 509.499817,184.976227 
	C507.501312,184.992706 505.373932,184.160599 503.529877,184.619965 
	C500.839508,185.290176 497.256592,185.504944 497.044067,189.502350 
	C496.904572,192.125320 494.762115,193.329010 493.420288,194.933319 
	C481.892487,208.716125 470.230072,222.388367 458.452728,235.959000 
	C455.713440,239.115387 452.928741,242.641296 448.000000,242.500000 
"/>
<path fill="none" opacity="1.000000" stroke="#000000" stroke-linecap="round" stroke-linejoin="round" stroke-width="10.000000"
	d="
M984.500000,183.000000 
	C988.401611,206.391190 985.327026,230.027924 986.962463,253.502609 
	C987.379272,259.485199 987.428345,265.499146 987.483093,271.500153 
	C987.691589,294.333130 987.808716,317.166870 988.017029,339.999847 
	C988.070312,345.834229 988.333374,351.666656 988.500000,357.500000 
"/>
<path fill="none" opacity="1.000000" stroke="#000000" stroke-linecap="round" stroke-linejoin="round" stroke-width="10.000000"
	d="
M362.000000,186.500000 
	C336.333344,186.500000 310.666595,186.468948 285.000000,186.508774 
	C259.496613,186.548340 234.011490,188.099762 208.500595,187.475952 
	C205.307465,187.397873 202.264832,189.698608 199.000000,188.000000 
"/>
<path fill="none" opacity="1.000000" stroke="#000000" stroke-linecap="round" stroke-linejoin="round" stroke-width="9.000000"
	d="
M497.500000,187.000000 
	C495.444855,185.201828 493.688934,183.919373 490.425659,185.327713 
	C486.921661,186.839905 482.834290,185.622498 478.999847,185.617645 
	C447.000122,185.577148 414.998260,185.698410 383.001404,186.109924 
	C376.325012,186.195801 369.666656,186.673767 363.000000,186.000000 
"/>
<path fill="none" opacity="1.000000" stroke="#000000" stroke-linecap="round" stroke-linejoin="round" stroke-width="8.000000"
	d="
M366.500000,1020.500000 
	C362.856140,1020.011047 360.147583,1021.107056 357.420197,1023.922729 
	C332.396881,1049.756592 307.822266,1076.007324 283.472229,1102.474487 
	C273.975311,1112.797241 264.569794,1123.264771 254.338242,1132.826904 
	C248.812134,1137.991699 246.558945,1143.356934 247.500000,1150.500000 
"/>
<path fill="none" opacity="1.000000" stroke="#000000" stroke-linecap="round" stroke-linejoin="round" stroke-width="13.000000"
	d="
M484.500000,187.500000 
	C484.841736,190.703934 482.867401,192.784073 481.019775,195.016357 
	C470.978088,207.148529 461.020966,219.350662 450.983612,231.486435 
	C448.791473,234.136841 446.885071,236.837799 447.522278,240.496124 
	C447.856445,242.414871 446.545654,243.300156 445.525330,244.521164 
	C432.320496,260.322601 419.183960,276.181091 405.994446,291.995392 
	C395.688843,304.351807 385.235443,316.586884 375.069702,329.056824 
	C372.568451,332.125031 369.682465,334.023682 366.000000,335.000000 
"/>
<path fill="none" opacity="1.000000" stroke="#000000" stroke-linecap="round" stroke-linejoin="round" stroke-width="8.000000"
	d="
M377.500000,1020.000000 
	C385.000000,1027.500000 392.476593,1035.023682 400.014893,1042.484985 
	C402.153656,1044.601929 404.130646,1046.814087 403.948120,1049.997070 
	C403.807648,1052.446045 405.768799,1053.257568 407.040771,1054.456787 
	C419.139038,1065.862671 431.326477,1077.173950 443.501709,1088.498169 
	C459.994965,1103.838745 476.663574,1118.997437 492.855591,1134.649414 
	C495.924438,1137.615967 498.880646,1141.814453 498.000000,1147.000000 
"/>
<path fill="none" opacity="1.000000" stroke="#000000" stroke-linecap="round" stroke-linejoin="round" stroke-width="8.000000"
	d="
M370.000000,1029.500000 
	C373.081024,1029.421631 375.340637,1030.801514 377.553131,1032.945190 
	C383.227417,1038.442749 389.134644,1043.702271 395.015656,1048.982544 
	C397.400604,1051.123779 400.052460,1052.755005 403.500000,1051.500000 
"/>
<path fill="none" opacity="1.000000" stroke="#000000" stroke-linecap="round" stroke-linejoin="round" stroke-width="8.000000"
	d="
M141.000000,1154.000000 
	C134.419556,1159.499878 126.891922,1157.594360 119.500000,1156.750000 
"/>
<path fill="none" opacity="1.000000" stroke="#000000" stroke-linecap="round" stroke-linejoin="round" stroke-width="4.000000"
	d="
M368.500000,1019.500000 
	C371.333344,1019.500000 374.166656,1019.500061 376.999847,1019.479431 
	C377.001068,1019.479431 377.032318,1019.158203 376.991425,1019.002258 
	C376.945221,1018.825867 376.833313,1018.666687 376.749969,1018.500000 
"/>
</svg>