<svg version="1.1" id="Layer_1" xmlns="http://www.w3.org/2000/svg" xmlns:xlink="http://www.w3.org/1999/xlink" x="0px" y="0px"
	 width="100%" viewBox="0 0 1024 816" enable-background="new 0 0 1024 816" xml:space="preserve">
<path fill="#000000" opacity="1.000000" stroke="none" 
	d="
M415.997314,779.619507 
	C459.651642,779.298828 502.813568,779.351929 545.959351,778.544800 
	C583.103394,777.850037 620.251892,777.349670 657.391113,776.530151 
	C694.865845,775.703247 732.344360,775.263794 769.816895,774.518860 
	C808.790405,773.744141 847.766296,773.205078 886.738037,772.462585 
	C924.376282,771.745544 962.010193,770.881592 999.655457,770.655396 
	C1002.361755,770.639160 1005.233582,769.975464 1006.394836,773.997803 
	C1008.342773,780.745361 1008.061890,781.212463 1000.887817,781.446594 
	C965.072449,782.615051 929.236816,781.764893 893.424500,782.469238 
	C840.105835,783.517761 786.779297,782.665894 733.469543,783.548035 
	C684.316650,784.361328 635.160034,783.746399 586.016968,784.570190 
	C558.367004,785.033630 530.716614,784.902161 503.071320,785.404663 
	C465.438354,786.088745 427.807922,786.914551 390.174866,787.593689 
	C353.532379,788.254883 316.884003,788.631348 280.245483,789.457031 
	C241.941071,790.320312 203.634277,790.912292 165.325745,791.520996 
	C127.684662,792.119141 90.051826,793.216187 52.402218,793.398193 
	C43.244339,793.442505 34.088863,793.907104 24.931328,794.141113 
	C21.995050,794.216125 19.076036,794.154175 18.614538,790.191589 
	C18.507927,789.276184 17.919964,788.658081 17.048006,788.456238 
	C14.991669,787.979980 13.550756,786.870361 14.113370,784.643921 
	C14.694936,782.342529 16.960649,782.536682 18.698343,782.481079 
	C27.185875,782.209412 35.677277,781.984985 44.168633,781.921936 
	C61.666328,781.791992 79.164841,781.760559 96.663094,781.726868 
	C99.538223,781.721313 101.582817,781.670776 103.065582,778.058716 
	C104.423721,774.750183 108.005936,772.331909 110.677231,769.588684 
	C132.297150,747.386963 153.931870,725.199707 175.568848,703.014587 
	C176.615173,701.941772 177.560303,700.623901 178.832275,699.941528 
	C186.524643,695.814148 187.205490,689.029663 186.648438,681.327576 
	C185.181030,661.038391 185.947876,640.698364 185.760330,620.380859 
	C185.560379,598.717346 186.049927,577.042786 185.580475,555.387329 
	C184.319916,497.239655 185.402756,439.077911 184.415039,380.938873 
	C183.769669,342.951599 184.395187,304.960999 183.502899,266.991425 
	C182.516235,225.006149 183.019882,183.022125 182.586548,141.039917 
	C182.510498,133.672989 182.238220,133.238297 175.057785,133.427200 
	C143.243301,134.264160 111.422600,134.290634 79.601479,134.327866 
	C78.105415,134.329620 76.591484,134.351501 75.118134,134.139679 
	C73.669823,133.931412 72.730423,132.972137 72.611366,131.444427 
	C72.486603,129.843414 73.406487,129.105591 74.859657,128.633087 
	C78.182579,127.552658 81.436775,126.620781 85.051514,126.633163 
	C112.549278,126.727448 140.047653,126.657318 167.545792,126.615402 
	C169.873810,126.611847 172.216232,126.575203 174.526749,126.322929 
	C182.311874,125.472946 182.699814,125.039680 182.363785,117.160118 
	C181.206192,90.015343 181.901077,62.854744 181.658752,35.702366 
	C181.638489,33.431923 180.663452,29.890734 184.465530,29.950956 
	C187.630630,30.001091 189.260605,32.699043 189.357758,35.865620 
	C189.679382,46.348568 190.050018,56.832867 190.151932,67.319077 
	C190.325226,85.149712 190.400665,102.982727 190.299362,120.813499 
	C190.277115,124.727165 191.578690,126.097069 195.478424,126.063759 
	C219.641220,125.857445 243.805405,125.777679 267.969177,125.768188 
	C270.789398,125.767075 272.579803,124.532127 274.384399,122.621010 
	C276.306488,120.585472 278.025909,119.924767 280.486145,122.796593 
	C282.673615,125.350021 286.438721,125.717583 289.925964,125.698578 
	C331.246490,125.473351 372.567078,125.254242 413.887787,125.058838 
	C449.050690,124.892555 484.219940,125.119774 519.375000,124.512344 
	C556.359863,123.873299 593.352295,124.226105 630.325928,123.498184 
	C675.646606,122.605949 720.966309,123.018745 766.284058,122.565125 
	C792.441101,122.303299 818.597229,121.944046 844.754700,121.757431 
	C847.456055,121.738152 851.256165,120.373024 852.085815,124.786743 
	C852.609131,127.570732 848.443909,130.360840 844.038452,130.364395 
	C825.539612,130.379303 807.040649,130.295670 788.542053,130.359177 
	C732.721802,130.550827 676.901672,130.792175 621.081604,131.027328 
	C619.275452,131.034943 617.469971,131.185959 615.275757,131.288223 
	C615.275757,135.358917 615.273193,139.131744 615.276184,142.904556 
	C615.299866,173.069138 615.320862,203.233719 615.352234,233.398300 
	C615.358887,239.807098 615.379639,239.593399 621.598511,239.675461 
	C628.658264,239.768585 634.870361,242.938736 640.285339,246.968048 
	C651.658936,255.431183 659.561279,266.610077 664.005432,280.174835 
	C668.619873,294.259155 665.306396,307.288605 658.132874,319.406586 
	C648.135559,336.294891 633.638672,347.274384 613.482117,348.071442 
	C590.878967,348.965210 572.136353,334.571381 562.841858,311.945465 
	C553.836670,290.023834 563.394470,259.996765 584.230286,249.525177 
	C590.324036,246.462555 596.277527,243.097534 602.140747,239.611206 
	C604.385376,238.276505 606.249023,239.533142 608.752563,239.774170 
	C609.154541,203.650818 607.634460,167.755951 607.227539,132.250107 
	C605.088196,130.531006 603.182617,131.012695 601.406311,131.015579 
	C532.912048,131.126846 464.412964,130.832840 395.925659,131.592834 
	C363.607635,131.951477 331.288818,132.006577 298.972229,132.381943 
	C294.315155,132.436035 289.655640,132.850739 285.005676,132.741272 
	C282.143555,132.673889 280.879761,134.527176 279.372314,136.264999 
	C255.368912,163.936676 231.386841,191.626892 207.358597,219.276993 
	C202.664322,224.678833 197.910782,230.039886 192.950485,235.194489 
	C190.992813,237.228851 191.340210,239.452728 191.355118,241.706635 
	C191.649521,286.188080 191.974808,330.669342 192.309326,375.150513 
	C192.845642,446.467438 193.216110,517.784790 193.496353,589.103455 
	C193.625961,622.087097 194.037781,655.076782 194.234879,688.064453 
	C194.252136,690.950562 194.125900,693.576538 197.881714,694.671753 
	C199.611832,695.176208 200.981644,697.103943 202.384003,698.516296 
	C221.285507,717.552490 240.180527,736.595154 259.036438,755.676514 
	C263.733643,760.429810 268.930359,764.594177 273.996033,768.922729 
	C276.850708,771.362000 280.008453,773.500610 280.891388,777.741028 
	C281.527496,780.796082 284.485565,780.644531 287.062286,780.612244 
	C309.548584,780.330261 332.034790,780.012756 354.522034,779.837402 
	C374.846619,779.679016 395.172546,779.685974 415.997314,779.619507 
M574.985046,268.490631 
	C568.549255,278.789185 566.381409,289.932220 568.077026,301.946259 
	C570.771790,321.039459 581.314148,334.143524 599.607422,339.245178 
	C617.320679,344.184998 633.298157,338.818298 646.075684,325.537689 
	C663.722351,307.196167 660.979126,281.707458 647.710693,263.185028 
	C640.309998,252.853897 629.946167,246.445648 617.538086,246.611908 
	C600.524963,246.839844 584.949768,251.952499 574.985046,268.490631 
M245.499130,133.157516 
	C229.845840,133.222275 214.192505,133.279037 198.539276,133.355011 
	C190.308365,133.394943 190.321014,133.409271 190.853668,141.435623 
	C190.952759,142.928726 190.917053,144.431488 190.924164,145.929901 
	C191.040878,170.574356 191.144470,195.218903 191.298981,219.863129 
	C191.306519,221.065781 190.717255,222.505783 192.189026,223.594955 
	C216.211502,193.741699 240.194183,163.937897 264.960388,133.160416 
	C257.776337,133.160416 252.137344,133.160416 245.499130,133.157516 
M170.628922,781.115417 
	C174.126038,781.064270 177.639572,780.778320 181.116150,781.021179 
	C185.490631,781.326599 186.865616,779.636963 186.822861,775.264221 
	C186.606293,753.111450 186.676575,730.955872 186.633713,708.801270 
	C186.629745,706.748840 186.667709,704.665466 185.321671,702.192017 
	C160.764984,728.181763 137.578186,754.585022 113.325333,781.674866 
	C133.067261,781.482605 151.370041,782.015869 170.628922,781.115417 
M268.785919,774.699036 
	C245.945679,751.208984 219.280411,732.107117 195.238541,709.199158 
	C193.799713,712.847717 194.303955,715.516296 194.322372,718.108948 
	C194.458282,737.242615 194.877304,756.377563 194.713852,775.507812 
	C194.673828,780.190613 196.150085,781.039368 200.319885,780.995544 
	C223.121536,780.756042 245.925720,780.763000 268.728790,780.641479 
	C270.137085,780.634033 271.735565,781.165649 272.959778,779.797119 
	C272.423615,777.683167 270.525421,776.695496 268.785919,774.699036 
z"/>
</svg>