<svg version="1.1" id="Layer_1" xmlns="http://www.w3.org/2000/svg" xmlns:xlink="http://www.w3.org/1999/xlink" x="0px" y="0px"
	 width="100%" viewBox="0 0 1024 800" enable-background="new 0 0 1024 800" xml:space="preserve">
<path fill="#000000" opacity="1.000000" stroke="none" 
	d="
M599.668823,140.041885 
	C599.599060,129.225754 599.599060,129.224564 589.304871,129.238556 
	C543.641052,129.300629 497.970947,128.911484 452.315186,129.550674 
	C404.823395,130.215591 357.330444,129.910828 309.844360,130.564545 
	C299.030212,130.713425 288.203796,131.023468 277.382721,131.125610 
	C274.438660,131.153412 272.338287,132.153091 270.467804,134.320023 
	C249.687256,158.394440 228.894135,182.458115 208.045380,206.473465 
	C200.296341,215.399445 192.463181,224.255356 184.506744,232.996094 
	C182.641190,235.045532 182.075684,237.153351 182.083298,239.760834 
	C182.211105,283.591003 181.714874,327.432587 182.565659,371.248169 
	C183.313004,409.736298 182.807678,448.219788 183.403137,486.698486 
	C184.424179,552.678467 184.199890,618.662659 184.440109,684.645447 
	C184.450943,687.619812 184.728958,690.593262 184.901337,693.931396 
	C188.535889,693.555115 190.623657,696.031799 192.836258,698.276428 
	C211.668457,717.381042 230.439896,736.546082 249.361465,755.561829 
	C253.933884,760.156982 258.997711,764.262878 263.832855,768.596863 
	C266.995087,771.431335 270.767303,773.591614 271.855347,778.354370 
	C272.497559,781.165649 275.494324,780.743774 277.813812,780.739685 
	C300.978973,780.698425 324.148712,780.921570 347.308380,780.539551 
	C396.623077,779.726074 445.941650,779.907043 495.257141,779.524475 
	C537.403625,779.197632 579.552856,778.565430 621.687073,777.515259 
	C658.494934,776.597900 695.307312,776.185059 732.115662,775.473145 
	C768.424011,774.770996 804.735413,774.253418 841.041260,773.526794 
	C882.183777,772.703369 923.319702,771.735840 964.472717,771.607239 
	C974.292908,771.576538 984.110229,770.998108 993.931396,770.784851 
	C998.858093,770.677795 1001.902344,774.295044 1001.186768,779.132751 
	C1000.846436,781.432983 999.080444,782.027161 997.189148,782.134827 
	C994.364075,782.295654 991.525818,782.231995 988.693115,782.249634 
	C928.873108,782.621399 869.050537,782.760010 809.234009,783.435974 
	C762.913330,783.959351 716.587891,783.849182 670.273438,784.474487 
	C618.955933,785.167419 567.634094,784.684387 516.325439,785.491394 
	C477.850433,786.096558 439.376068,786.863159 400.901733,787.556152 
	C365.763672,788.189026 330.624176,788.811462 295.487152,789.498291 
	C238.694321,790.608398 181.904694,791.785400 125.103615,792.440918 
	C88.625206,792.861938 52.144348,793.454041 15.682340,794.556519 
	C9.204660,794.752380 7.769118,789.761963 4.249318,786.976746 
	C2.648781,785.710144 4.367375,783.521484 6.425064,783.043823 
	C8.021351,782.673340 9.730367,782.706848 11.389668,782.702271 
	C27.721945,782.657227 44.054802,782.710327 60.386444,782.591492 
	C69.708794,782.523682 79.028542,782.144348 88.350960,782.007690 
	C90.569115,781.975220 91.686783,781.345947 92.832077,779.148376 
	C94.327240,776.279358 96.859169,773.888184 99.179344,771.521179 
	C123.205376,747.009949 147.143234,722.408936 171.479797,698.209167 
	C175.278717,694.431641 176.836105,691.011414 176.799438,685.810913 
	C176.307129,615.993713 176.449234,546.169128 175.490280,476.359253 
	C174.837952,428.872131 175.346268,381.381500 174.475555,333.906342 
	C173.653503,289.084381 174.245895,244.259155 173.483978,199.447479 
	C173.132843,178.795395 172.939850,158.144211 172.829010,137.492691 
	C172.806503,133.296539 171.403595,132.080704 167.334961,132.107590 
	C136.004715,132.314743 104.673233,132.331879 73.342239,132.438934 
	C70.858215,132.447418 68.366646,132.872513 65.894234,132.760056 
	C64.157791,132.681046 62.662998,131.772552 62.657413,129.649658 
	C62.652546,127.799599 63.858295,127.149063 65.462021,126.711746 
	C69.482063,125.615547 73.478714,124.820251 77.719177,124.824249 
	C107.049873,124.851913 136.380783,124.735329 165.711472,124.627663 
	C172.678864,124.602081 172.748703,124.536026 172.672348,117.322060 
	C172.409668,92.501793 172.091843,67.682114 171.800064,42.862144 
	C171.766754,40.029354 171.637268,37.189453 171.786209,34.365177 
	C171.924728,31.738956 170.813980,27.711330 175.036636,27.871439 
	C178.481216,28.002043 180.195557,31.159580 180.219742,34.713459 
	C180.290039,45.045719 180.236130,55.379265 180.368195,65.710556 
	C180.598083,83.695068 180.998352,101.677658 181.163452,119.662552 
	C181.196442,123.255974 182.336975,124.726295 186.083740,124.675568 
	C210.404343,124.346352 234.727005,124.172157 259.048828,123.928207 
	C260.039490,123.918274 261.509521,124.097618 261.942749,123.547798 
	C265.863770,118.571716 269.934845,119.353676 274.502930,122.622017 
	C276.728882,124.214607 279.581940,123.890045 282.258392,123.885414 
	C335.754730,123.792694 389.257507,124.195358 442.745178,123.474449 
	C476.232635,123.023102 509.726227,123.303963 543.200989,122.556038 
	C585.356201,121.614182 627.515564,122.246376 669.663574,121.566658 
	C712.813599,120.870796 755.965393,120.931618 799.112671,120.432343 
	C811.928040,120.284058 824.759338,120.227264 837.578186,119.849602 
	C839.071533,119.805611 840.609375,119.772392 842.059631,120.065559 
	C845.608643,120.782974 846.321411,122.966965 844.067932,125.786194 
	C842.416138,127.852570 840.368713,129.063889 837.631592,129.007629 
	C834.966431,128.952835 832.299011,129.007553 829.632629,129.010468 
	C757.971558,129.088501 686.310547,129.166138 614.649475,129.243378 
	C612.337524,129.245865 610.025513,129.243683 607.836914,129.243683 
	C606.545837,131.512482 607.322510,133.527863 607.333862,135.442490 
	C607.525513,167.764191 607.841919,200.085266 607.971863,232.407120 
	C607.989563,236.802780 608.302185,239.357376 613.968201,238.223373 
	C619.110840,237.194122 623.809082,240.457047 627.856140,242.928955 
	C645.463196,253.683334 657.001953,269.217407 658.100586,290.157013 
	C659.541077,317.611572 636.941711,342.857513 608.639282,347.223602 
	C607.999634,347.322266 607.356934,347.400787 605.982300,347.589294 
	C608.756104,350.020935 608.340149,352.871521 608.340332,355.626923 
	C608.341736,377.958801 608.250244,400.291168 608.370239,422.622345 
	C608.414062,430.776947 608.968933,438.928314 609.254272,447.082428 
	C609.317993,448.903809 609.452087,450.772430 608.234802,452.364685 
	C607.274902,453.620361 606.096130,454.558044 604.435242,454.313568 
	C602.639709,454.049255 602.042114,452.628784 601.889465,451.055267 
	C601.745117,449.567047 601.757874,448.060669 601.754395,446.562164 
	C601.716370,430.230560 601.908081,413.894745 601.597107,397.568481 
	C601.280579,380.951385 600.471802,364.343689 599.860352,347.222839 
	C579.079407,344.593536 565.238525,332.834229 556.476990,314.425171 
	C550.784668,302.464935 549.773621,290.178894 553.608948,277.521179 
	C559.301758,258.733398 587.077087,235.488907 600.781250,238.440063 
	C601.500977,205.732941 599.604309,173.140457 599.668823,140.041885 
M605.116577,245.767731 
	C596.825378,246.751907 588.375977,247.711807 581.385864,252.621750 
	C564.834167,264.247864 557.573425,280.283722 560.086548,300.485260 
	C562.552002,320.303802 573.723877,333.553619 592.652771,338.467499 
	C610.807556,343.180450 626.856628,337.253784 639.532166,323.263153 
	C658.616638,302.198669 651.028625,271.868073 635.169495,256.375092 
	C627.158630,248.549103 617.399048,244.580490 605.116577,245.767731 
M184.899246,132.112946 
	C181.142822,131.995468 181.244965,134.558472 181.252350,137.206192 
	C181.308960,157.537140 181.327118,177.868210 181.350876,198.199234 
	C181.359909,205.939651 181.352341,213.680115 181.352341,221.420547 
	C181.936508,221.523636 182.520676,221.626724 183.104843,221.729813 
	C207.126999,191.935303 231.149170,162.140778 255.801865,131.564209 
	C231.668915,130.727676 208.743240,131.964951 184.899246,132.112946 
M176.622589,704.304077 
	C173.929352,702.436707 173.332901,705.478943 172.342819,706.484802 
	C152.145538,727.002502 133.466995,748.914185 114.166336,770.255859 
	C111.040199,773.712646 107.121132,776.648682 104.983704,781.520996 
	C106.807892,781.656372 108.108055,781.839355 109.407791,781.836426 
	C129.880844,781.790283 150.354553,781.606628 170.826279,781.739746 
	C175.625854,781.770935 177.198578,780.121887 177.138916,775.368042 
	C176.844437,751.903381 176.813217,728.435486 176.622589,704.304077 
M215.117218,735.412598 
	C205.272232,726.818848 195.427246,718.225098 185.260086,709.350098 
	C185.260086,732.079407 185.398178,754.026489 185.152985,775.969299 
	C185.098694,780.827332 186.901138,781.981384 191.276596,781.678345 
	C209.741547,780.399353 228.245056,781.197083 246.729416,780.864380 
	C252.311829,780.763855 257.897583,780.848755 264.598175,780.848755 
	C249.518768,763.213562 232.105545,750.065491 215.117218,735.412598 
z"/>
</svg>