<svg version="1.1" id="Layer_1" xmlns="http://www.w3.org/2000/svg" xmlns:xlink="http://www.w3.org/1999/xlink" x="0px" y="0px"
	 width="100%" viewBox="0 0 1501 1168" enable-background="new 0 0 1501 1168" xml:space="preserve">
<path fill="none" opacity="1.000000" stroke="#000000" stroke-linecap="round" stroke-linejoin="round" stroke-width="13.000000"
	d="
M1460.500000,1111.000000 
	C1457.431274,1110.927856 1454.338989,1110.937866 1452.526245,1114.015503 
	C1451.446045,1115.849609 1449.824463,1114.942505 1448.499756,1114.950562 
	C1435.166870,1115.031616 1421.833008,1114.937012 1408.500122,1115.015625 
	C1390.999756,1115.118774 1373.491455,1115.045898 1356.001953,1115.564453 
	C1326.503784,1116.439087 1297.003540,1116.401489 1267.500244,1116.545044 
	C1247.832397,1116.640991 1228.155273,1116.865601 1208.504028,1117.607910 
	C1195.827393,1118.086914 1183.166626,1117.851685 1170.499756,1117.977539 
	C1146.000488,1118.221191 1121.484009,1117.849731 1097.005127,1118.656372 
	C1078.164917,1119.277100 1059.326904,1119.060303 1040.503906,1119.628052 
	C1027.828613,1120.010132 1015.166565,1119.835083 1002.499756,1119.979980 
	C981.500610,1120.220459 960.469849,1119.692383 939.508423,1120.678345 
	C918.160156,1121.682739 896.823059,1120.875732 875.503296,1121.597656 
	C857.662354,1122.201660 839.832092,1121.710571 822.000122,1122.005615 
	C803.333008,1122.314453 784.654663,1122.364258 766.004150,1123.105103 
	C753.327332,1123.608643 740.666565,1123.336792 727.999756,1123.479736 
	C706.667297,1123.720703 685.332397,1123.759644 664.000305,1124.022583 
	C645.832214,1124.246582 627.654358,1124.363892 609.504211,1125.103516 
	C596.827393,1125.620117 584.166565,1125.348022 571.499756,1125.478027 
	C547.833862,1125.721191 524.165833,1125.756226 500.500275,1126.024780 
	C481.998871,1126.234863 463.487854,1126.360840 445.003754,1127.094604 
	C429.661896,1127.703735 414.333099,1127.310791 398.999786,1127.481201 
	C377.333954,1127.721924 355.639099,1127.218262 334.008392,1128.187500 
	C315.493073,1129.017212 297.001740,1128.776245 278.499878,1128.989746 
	C260.000427,1129.203369 241.499207,1129.273315 223.000214,1129.516479 
	C203.165939,1129.777100 183.329086,1130.016602 163.502243,1130.578857 
	C156.301590,1130.783081 149.067123,1129.986572 142.012238,1130.287109 
	C118.173439,1131.303101 94.343208,1131.472290 70.500000,1131.498901 
	C64.000008,1131.506104 57.499725,1131.464844 51.000122,1131.515503 
	C47.996529,1131.538940 45.008244,1131.522339 41.987011,1131.894653 
	C38.919598,1132.272583 35.620422,1132.712646 32.963570,1130.036133 
	C31.385401,1128.446289 29.154242,1128.536011 27.001072,1128.466675 
	C20.668173,1128.262817 14.308587,1129.107056 8.000000,1128.000000 
"/>
<path fill="none" opacity="1.000000" stroke="#000000" stroke-linecap="round" stroke-linejoin="round" stroke-width="11.000000"
	d="
M254.000000,22.000000 
	C255.831512,24.559250 256.022644,27.451471 256.037903,30.499809 
	C256.127319,48.333530 256.002502,66.177391 256.580353,83.997398 
	C257.374878,108.501350 256.510773,133.005066 257.040924,157.499115 
	C258.101440,206.496216 257.848145,255.499054 258.255096,304.497894 
	C258.304657,310.464691 258.678741,316.474091 258.784302,322.495026 
	C259.175995,344.833862 258.798828,367.166901 258.971466,389.500214 
	C259.111877,407.665802 258.440796,425.853882 259.107391,443.996063 
	C260.932251,493.662079 258.823914,543.352478 260.188202,592.994812 
	C261.480194,640.005920 260.040466,687.010925 261.111359,733.997437 
	C262.273773,785.000061 261.539032,836.002075 262.136963,886.998413 
	C262.338257,904.166443 261.926331,921.346130 262.583679,938.496765 
	C263.292969,957.002747 262.724091,975.501038 263.002197,993.999939 
	C263.075500,998.876160 264.177917,1004.072449 263.880310,1008.457947 
	C263.498627,1014.083069 263.089539,1019.844238 263.087891,1025.500000 
	C263.077942,1059.666626 263.333313,1093.833374 263.500000,1128.000000 
"/>
<path fill="none" opacity="1.000000" stroke="#000000" stroke-linecap="round" stroke-linejoin="round" stroke-width="9.000000"
	d="
M1234.500000,158.000000 
	C1188.385864,162.300919 1142.165649,159.306229 1095.998657,159.896667 
	C1047.004517,160.523224 997.981140,159.556549 949.005920,160.744675 
	C909.492065,161.703278 869.991882,160.682846 830.502258,161.597931 
	C805.496338,162.177399 780.499878,161.814651 755.499817,161.976120 
	C715.833740,162.232330 676.158936,161.903000 636.502075,162.614853 
	C592.333618,163.407700 548.163452,163.050049 504.001801,163.636093 
	C470.830841,164.076294 437.666046,163.702560 404.499817,163.976212 
	C402.501312,163.992706 400.373932,163.160599 398.529877,163.619965 
	C395.839508,164.290176 392.256561,164.504944 392.044037,168.502335 
	C391.904572,171.125320 389.762085,172.328979 388.420258,173.933304 
	C376.892456,187.716095 365.230042,201.388336 353.452728,214.958969 
	C350.713440,218.115356 347.928741,221.641296 343.000000,221.500000 
"/>
<path fill="none" opacity="1.000000" stroke="#000000" stroke-linecap="round" stroke-linejoin="round" stroke-width="8.000000"
	d="
M882.500000,486.500000 
	C885.439575,480.400909 891.598267,479.877411 897.018616,478.577637 
	C923.548401,472.215790 941.336792,455.629242 951.341309,430.935699 
	C959.935913,409.722107 956.744141,388.759003 945.909668,369.049652 
	C938.800964,356.118042 928.937256,345.465088 915.989197,338.018829 
	C906.091064,332.326569 895.034668,329.929291 884.066040,331.470032 
	C879.051392,332.174438 873.880615,331.896454 869.036987,333.143646 
	C864.530396,334.304169 860.264343,336.520325 856.011963,338.525452 
	C837.827881,347.099640 824.077759,359.702057 816.357056,378.942627 
	C805.013428,407.211884 813.145874,440.042633 832.895813,459.605164 
	C843.855652,470.461029 856.419312,477.329956 871.488037,480.065948 
	C874.931641,480.691162 878.181091,482.202972 879.500000,486.000000 
"/>
<path fill="none" opacity="1.000000" stroke="#000000" stroke-linecap="round" stroke-linejoin="round" stroke-width="10.000000"
	d="
M879.500000,162.000000 
	C883.401611,185.391190 880.338379,209.027176 881.957336,232.502945 
	C882.404236,238.983612 882.428528,245.499207 882.483093,252.000137 
	C882.691650,276.833130 882.825134,301.666718 883.020081,326.499847 
	C883.031860,328.001068 883.333313,329.500000 883.500000,331.000000 
"/>
<path fill="none" opacity="1.000000" stroke="#000000" stroke-linecap="round" stroke-linejoin="round" stroke-width="10.000000"
	d="
M257.000000,165.500000 
	C231.333328,165.500000 205.666626,165.468948 180.000015,165.508774 
	C154.496643,165.548340 129.011490,167.099762 103.500587,166.475937 
	C100.307472,166.397858 97.264839,168.698608 94.000000,167.000000 
"/>
<path fill="none" opacity="1.000000" stroke="#000000" stroke-linecap="round" stroke-linejoin="round" stroke-width="9.000000"
	d="
M788.500000,558.000000 
	C797.686157,547.017273 810.269714,540.124329 821.100769,531.121216 
	C835.526123,519.130432 850.693909,508.034882 865.484436,496.480042 
	C870.307251,492.712280 875.142944,488.989929 880.457458,485.795197 
	C883.200439,486.839081 884.755737,488.442352 884.514221,491.501129 
	C883.238281,507.665375 884.407532,523.833069 884.483826,540.000061 
	C884.558533,555.833008 884.369995,571.668091 884.537476,587.499573 
	C884.696167,602.501465 885.175537,617.499817 885.489380,632.500244 
	C885.531738,634.525574 885.723267,636.590393 884.750000,638.500000 
"/>
<path fill="none" opacity="1.000000" stroke="#000000" stroke-linecap="round" stroke-linejoin="round" stroke-width="9.000000"
	d="
M392.500000,166.000000 
	C390.444855,164.201828 388.688934,162.919373 385.425629,164.327698 
	C381.921661,165.839890 377.834290,164.622513 373.999847,164.617661 
	C342.000122,164.577164 309.998260,164.698395 278.001404,165.109909 
	C271.325012,165.195801 264.666656,165.673767 258.000000,165.000000 
"/>
<path fill="none" opacity="1.000000" stroke="#000000" stroke-linecap="round" stroke-linejoin="round" stroke-width="8.000000"
	d="
M261.500000,999.500000 
	C257.856140,999.011047 255.147568,1000.106995 252.420212,1002.922729 
	C227.396896,1028.756592 202.822220,1055.007324 178.472244,1081.474487 
	C168.975204,1091.797119 159.569870,1102.264771 149.338333,1111.827026 
	C143.812134,1116.991699 141.558945,1122.356934 142.500000,1129.500000 
"/>
<path fill="none" opacity="1.000000" stroke="#000000" stroke-linecap="round" stroke-linejoin="round" stroke-width="8.000000"
	d="
M995.500000,547.500000 
	C991.903320,547.788757 989.756592,544.989197 987.003967,543.492676 
	C968.329651,533.340027 949.662842,523.173767 931.001404,512.997498 
	C918.494263,506.177216 905.957092,499.409851 893.533508,492.440277 
	C890.803040,490.908508 888.056335,489.868103 885.000000,489.500000 
"/>
<path fill="none" opacity="1.000000" stroke="#000000" stroke-linecap="round" stroke-linejoin="round" stroke-width="13.000000"
	d="
M379.500000,166.500000 
	C379.841736,169.703934 377.867432,171.784103 376.019806,174.016388 
	C365.978119,186.148575 356.020935,198.350647 345.983612,210.486450 
	C343.791504,213.136856 341.885040,215.837814 342.522217,219.496124 
	C342.856415,221.414871 341.545624,222.300140 340.525299,223.521149 
	C327.320465,239.322586 314.184021,255.181122 300.994446,270.995392 
	C290.688812,283.351837 280.235443,295.586853 270.069702,308.056824 
	C267.568420,311.125031 264.682465,313.023682 261.000000,314.000000 
"/>
<path fill="none" opacity="1.000000" stroke="#000000" stroke-linecap="round" stroke-linejoin="round" stroke-width="8.000000"
	d="
M272.500000,999.000000 
	C280.000000,1006.500000 287.476593,1014.023621 295.014954,1021.484924 
	C297.153656,1023.601807 299.130585,1025.814087 298.948029,1028.997070 
	C298.807587,1031.446045 300.768799,1032.257568 302.040771,1033.456787 
	C314.139069,1044.862671 326.326508,1056.173950 338.501740,1067.498169 
	C354.995056,1082.838623 371.663605,1097.997437 387.855682,1113.649292 
	C390.924500,1116.615845 393.880646,1120.814453 393.000000,1126.000000 
"/>
<path fill="none" opacity="1.000000" stroke="#000000" stroke-linecap="round" stroke-linejoin="round" stroke-width="8.000000"
	d="
M265.000000,1008.500000 
	C268.081024,1008.421631 270.340668,1009.801575 272.553162,1011.945129 
	C278.227417,1017.442627 284.134552,1022.702454 290.015625,1027.982666 
	C292.400574,1030.123901 295.052460,1031.755005 298.500000,1030.500000 
"/>
<path fill="none" opacity="1.000000" stroke="#000000" stroke-linecap="round" stroke-linejoin="round" stroke-width="8.000000"
	d="
M36.000000,1133.000000 
	C29.419563,1138.499878 21.891922,1136.594360 14.500000,1135.750000 
"/>
<path fill="none" opacity="1.000000" stroke="#000000" stroke-linecap="round" stroke-linejoin="round" stroke-width="4.000000"
	d="
M263.500000,998.500000 
	C266.333344,998.500000 269.166656,998.500061 271.999847,998.479431 
	C272.001068,998.479431 272.032288,998.158203 271.991425,998.002258 
	C271.945251,997.825806 271.833344,997.666687 271.750000,997.500000 
"/>
</svg>