<svg version="1.1" id="Layer_1" xmlns="http://www.w3.org/2000/svg" xmlns:xlink="http://www.w3.org/1999/xlink" x="0px" y="0px"
	 width="100%" viewBox="0 0 1024 768" enable-background="new 0 0 1024 768" xml:space="preserve">
<path fill="#000000" opacity="1.000000" stroke="none" 
	d="
M311.970673,758.159668 
	C279.154083,758.580872 246.824585,758.677612 214.513428,759.496887 
	C176.039459,760.472412 137.557281,760.790161 99.085548,761.591187 
	C73.110687,762.132080 47.088951,761.542603 21.175667,763.383484 
	C14.098932,763.886108 12.122894,758.824951 8.272328,755.750122 
	C6.711021,754.503418 7.967627,752.183289 10.241058,751.783325 
	C12.688736,751.352844 15.199261,751.103760 17.684273,751.088623 
	C41.682430,750.942261 65.680954,750.825623 89.679466,750.806458 
	C92.835678,750.803955 95.293510,750.806213 96.426704,746.899658 
	C97.009300,744.891174 99.348656,743.357727 100.979286,741.692993 
	C124.763626,717.411133 148.347549,692.925659 172.540924,669.058044 
	C177.326279,664.337158 179.002792,660.007568 178.943130,653.613037 
	C178.618240,618.783020 179.220688,583.937927 178.479126,549.119812 
	C177.584869,507.131744 178.379898,465.139069 177.536652,423.165588 
	C176.465454,369.843933 177.409988,316.515106 176.454407,263.206512 
	C175.794373,226.384750 176.224976,189.563431 175.460388,152.754929 
	C175.187149,139.601166 174.906082,126.446747 174.954514,113.294685 
	C174.971176,108.772148 173.696579,107.156677 168.997208,107.319519 
	C137.190216,108.421753 105.365456,108.281319 73.544342,108.325401 
	C72.211525,108.327248 70.877861,108.338814 69.546066,108.297852 
	C67.668167,108.240105 66.239365,107.409698 66.020905,105.457977 
	C65.811249,103.584862 67.235481,103.086861 68.780121,102.547363 
	C72.268730,101.328896 75.751869,100.645248 79.498566,100.654846 
	C106.164566,100.723129 132.830978,100.666107 159.497116,100.599113 
	C162.653458,100.591187 165.828827,99.976776 168.960464,100.180458 
	C174.067947,100.512650 174.915192,97.981506 174.867188,93.522835 
	C174.617874,70.367668 174.668793,47.209427 174.534180,24.052721 
	C174.507141,19.398769 174.026077,14.748363 173.958267,10.093349 
	C173.925644,7.854334 173.579453,4.799483 176.806931,4.624648 
	C179.846725,4.459981 181.359680,7.024956 182.116928,9.690340 
	C182.470123,10.933623 182.279480,12.337728 182.295959,13.669423 
	C182.627747,40.492428 183.068512,67.315056 183.173050,94.138992 
	C183.191422,98.849716 184.764496,100.129822 189.224533,100.082794 
	C212.721176,99.835098 236.220230,99.791763 259.718536,99.766014 
	C262.415009,99.763062 264.449524,99.024124 266.306824,96.994949 
	C268.436340,94.668343 270.417297,93.133331 272.734192,97.529831 
	C273.559967,99.096802 277.517395,99.603012 280.042053,99.594803 
	C308.366119,99.502724 336.690765,100.018799 365.016083,99.228752 
	C380.504150,98.796753 396.011414,99.051659 411.510040,99.000771 
	C447.675018,98.882019 483.851562,99.296219 520.001831,98.505745 
	C559.658997,97.638588 599.320129,98.325356 638.964233,97.484802 
	C682.120056,96.569794 725.281067,97.231567 768.427490,96.476967 
	C790.082336,96.098244 811.736023,96.011902 833.389526,95.759605 
	C836.160583,95.727318 840.501038,94.736382 840.300293,99.131241 
	C840.141663,102.603645 836.849304,104.390305 832.976929,104.376122 
	C813.977417,104.306587 794.977600,104.335052 775.977844,104.343117 
	C733.312073,104.361221 690.644836,104.196053 647.981445,104.527527 
	C635.163391,104.627121 622.337769,104.949806 609.513245,105.022476 
	C608.038818,105.030830 606.519592,104.908974 605.398743,105.587746 
	C605.398743,141.418228 605.398743,176.986069 605.398743,212.918076 
	C617.162720,211.832428 626.325195,216.384644 634.349548,223.561081 
	C644.963501,233.053558 652.820740,244.658340 654.787231,258.765930 
	C657.651184,279.311096 648.949219,295.773560 633.367493,308.741241 
	C626.944275,314.086914 619.634277,318.047607 609.954163,319.911682 
	C619.759521,325.513733 628.495117,330.489349 637.215942,335.490753 
	C649.350952,342.450195 661.477539,349.424286 673.599548,356.406342 
	C674.896790,357.153534 676.175720,357.944092 677.397888,358.806976 
	C678.946350,359.900269 680.487244,361.237030 679.404907,363.326538 
	C678.142090,365.764557 676.089661,365.008484 674.227112,364.032806 
	C659.620544,356.381165 645.027954,348.702759 630.425293,341.043518 
	C623.090088,337.196136 615.742859,333.371643 608.469421,329.572510 
	C606.397278,331.626862 607.106384,333.736877 607.108582,335.614685 
	C607.139648,362.278320 607.193542,388.942108 607.358643,415.605164 
	C607.389709,420.628754 607.136719,425.538635 604.968567,430.500824 
	C614.590698,436.024384 624.087891,441.482330 633.590942,446.929993 
	C648.763123,455.627472 663.977417,464.252716 679.076355,473.075409 
	C681.616943,474.559937 686.150269,475.543335 683.409607,480.286469 
	C680.856934,484.704346 678.916870,484.937286 673.471375,481.733276 
	C649.481323,467.618347 626.336914,452.168549 603.124207,436.837891 
	C599.876221,434.692749 598.077148,435.131805 595.439087,437.428680 
	C577.980896,452.628784 560.410217,467.699615 542.870728,482.806152 
	C542.241150,483.348389 541.572937,483.851074 540.890015,484.325134 
	C539.319824,485.415222 537.589417,486.446350 536.029846,484.554718 
	C534.361206,482.530762 535.576721,480.857483 537.146851,479.373779 
	C541.624756,475.142548 546.133423,470.942749 550.558411,466.656708 
	C564.561218,453.093750 578.173584,439.097015 592.692871,426.113281 
	C598.377686,421.029694 599.946167,416.010345 600.247009,408.735382 
	C601.302063,383.215332 598.588867,357.813782 598.705383,332.342834 
	C598.710388,331.245087 599.016113,329.978760 597.418579,328.678802 
	C591.640076,332.775513 585.709229,336.948730 579.811401,341.168091 
	C567.618958,349.890656 555.379517,358.552155 544.052185,368.412628 
	C542.923950,369.394775 541.697510,370.274536 540.457764,371.114990 
	C539.168579,371.989014 537.733032,372.666656 536.372437,371.342377 
	C535.164490,370.166656 535.203979,368.735748 535.812317,367.186188 
	C536.759094,364.774628 538.262939,362.997101 540.479187,361.563721 
	C557.898621,350.297455 572.694885,335.754547 588.754761,322.786713 
	C589.652466,322.061798 590.770569,321.609650 591.583069,320.411194 
	C571.058838,314.300507 558.942749,300.646179 552.152710,281.692352 
	C547.705139,269.277405 549.188965,257.063171 554.037842,245.138397 
	C559.966492,230.558014 587.756348,210.268463 597.993042,212.851257 
	C599.489136,206.952759 598.453857,124.839371 596.637878,105.734993 
	C595.033447,104.508865 593.133850,105.024963 591.359131,105.027611 
	C523.361145,105.129173 455.358826,104.845665 387.367249,105.569313 
	C355.213043,105.911545 323.057190,106.037743 290.903656,106.407631 
	C286.249817,106.461159 281.612946,107.369339 276.941345,106.814613 
	C274.788055,106.558937 273.573944,107.891640 272.354309,109.303070 
	C256.241638,127.949142 240.187027,146.645874 223.988892,165.217438 
	C211.949951,179.020370 199.816971,192.744659 187.502090,206.300690 
	C185.037476,209.013748 184.130966,211.658401 184.155930,215.190216 
	C184.592010,276.845062 184.960709,338.500427 185.292114,400.155975 
	C185.409454,421.984467 185.040253,443.821014 185.499603,465.641113 
	C186.604416,518.123352 185.941803,570.612427 186.556503,623.092957 
	C186.694946,634.912354 186.816132,646.741577 187.020111,658.564941 
	C187.066086,661.230225 187.393692,663.222290 190.450043,664.329956 
	C192.337570,665.013977 193.819351,666.972473 195.334412,668.505859 
	C213.605194,686.997559 231.766190,705.598816 250.149017,723.978149 
	C255.555801,729.384033 261.603638,734.145142 267.290955,739.275696 
	C269.697235,741.446472 272.476898,743.137695 273.112671,746.992981 
	C273.626984,750.111755 276.875458,749.662476 279.363068,749.637939 
	C301.351318,749.421204 323.339020,749.107666 345.327728,748.986145 
	C381.492462,748.786316 417.658356,748.790222 453.822784,748.554260 
	C484.309418,748.355286 514.806030,748.340210 545.276489,747.477051 
	C566.102722,746.887024 586.928345,747.102295 607.744263,746.550354 
	C661.367981,745.128662 715.002625,744.407654 768.635559,743.495667 
	C807.112976,742.841431 845.587830,742.039795 884.069214,741.543945 
	C918.383301,741.101929 952.692871,740.312744 987.005249,739.720764 
	C989.749573,739.673340 992.600281,739.173950 993.654419,743.203735 
	C995.406372,749.900940 994.837402,750.960815 987.705994,750.992981 
	C955.707886,751.137451 923.703125,750.881592 891.712769,751.448364 
	C841.724670,752.334106 791.728394,751.759521 741.747681,752.544739 
	C696.590271,753.254150 651.435669,753.045166 606.280823,753.375366 
	C571.457153,753.630005 536.625977,753.662354 501.814514,754.485168 
	C480.822479,754.981506 459.825806,754.850464 438.845184,755.459229 
	C401.542542,756.541565 364.238403,757.278687 326.920776,757.428223 
	C322.101624,757.447571 317.284149,757.902100 311.970673,758.159668 
M558.863220,256.409729 
	C558.005005,262.483215 557.472290,268.455017 558.086670,274.711639 
	C560.555969,299.856995 586.495667,317.407928 608.602905,312.788300 
	C636.060181,307.050690 652.399109,283.756042 646.604614,256.396393 
	C642.529541,237.155334 625.776184,216.846344 600.548950,220.208862 
	C579.156860,223.060196 564.019226,235.454102 558.863220,256.409729 
M186.677261,194.787262 
	C209.959076,165.806717 233.240891,136.826172 256.883881,107.396042 
	C233.011780,107.396042 210.029236,107.411018 187.046738,107.380798 
	C183.358078,107.375946 183.284576,109.768295 183.300995,112.460213 
	C183.427948,133.279434 183.336273,154.102356 183.730270,174.916214 
	C183.849945,181.237457 183.887787,187.567734 184.108337,193.889435 
	C184.150284,195.091782 183.712387,197.740677 186.677261,194.787262 
M109.368134,747.484009 
	C108.857292,748.258606 107.712830,748.688904 108.071152,750.090088 
	C108.644012,750.215942 109.277107,750.472412 109.912209,750.477478 
	C131.370438,750.648621 152.827026,750.961121 174.285767,750.236206 
	C178.762558,750.084900 179.853897,748.242859 179.690750,744.102722 
	C178.806274,721.657654 178.859528,699.196594 178.868683,676.737671 
	C178.869125,675.627014 179.143280,674.402710 177.585358,672.815674 
	C154.028183,696.713257 132.374084,722.291931 109.368134,747.484009 
M204.501572,749.845642 
	C224.571243,749.845642 244.640915,749.845642 264.710602,749.845642 
	C264.855011,749.344482 264.999420,748.843262 265.143799,748.342102 
	C241.675720,723.056274 213.519989,703.058228 187.964539,679.986816 
	C187.337479,702.648560 187.335510,724.784546 187.340225,746.920532 
	C187.340759,749.385132 188.966721,749.971130 191.008560,749.962219 
	C195.173325,749.943970 199.337891,749.886719 204.501572,749.845642 
z"/>
</svg>