<svg version="1.1" id="Layer_1" xmlns="http://www.w3.org/2000/svg" xmlns:xlink="http://www.w3.org/1999/xlink" x="0px" y="0px"
	 width="100%" viewBox="0 0 1024 800" enable-background="new 0 0 1024 800" xml:space="preserve">
<path fill="#000000" opacity="1.000000" stroke="none" 
	d="
M1.000000,789.479187 
	C4.456765,790.270691 7.934132,789.011780 11.396979,789.013123 
	C35.394524,789.022461 59.392090,788.827087 83.389778,788.794312 
	C86.707542,788.789795 89.144623,788.636414 90.726074,784.754089 
	C91.904694,781.860657 94.941399,779.685120 97.267982,777.304565 
	C120.211388,753.829224 143.179092,730.377686 166.141846,706.921265 
	C166.608047,706.445068 167.029922,705.878479 167.586838,705.545227 
	C174.941772,701.143250 176.349945,694.541992 175.712631,686.459595 
	C174.061127,665.515625 175.008392,644.500244 174.789978,623.516235 
	C174.552338,600.686096 175.056000,577.844482 174.589493,555.021118 
	C173.394058,496.536896 174.396561,438.039398 173.427246,379.563843 
	C172.786499,340.909729 173.413269,302.252533 172.515686,263.615997 
	C171.660309,226.795044 172.093903,189.975571 171.523621,153.161270 
	C171.420425,146.500229 171.591324,139.851944 171.583038,133.198990 
	C171.578323,129.418640 170.288879,127.976418 166.297867,128.033783 
	C132.478577,128.519699 98.649887,127.841789 64.832794,128.806396 
	C62.594120,128.870255 60.185543,128.760788 59.573067,126.109680 
	C58.830513,122.895508 61.660465,123.155655 63.590675,122.336327 
	C67.093109,120.849609 70.682388,120.746498 74.365288,120.746086 
	C102.364052,120.743004 130.365097,120.901283 158.360687,120.586678 
	C173.696777,120.414330 170.962326,120.537209 170.898727,107.830994 
	C170.791946,86.499290 170.747833,65.167267 170.663208,43.835434 
	C170.640091,38.010029 170.562500,32.184853 170.518448,26.359505 
	C170.505753,24.680130 170.398346,22.886322 172.327591,22.095772 
	C174.536774,21.190519 175.627441,22.912968 176.914413,24.205719 
	C179.026382,26.327177 178.956223,29.011845 178.970184,31.682346 
	C179.098267,56.179268 179.242676,80.676147 179.334702,105.173210 
	C179.390717,120.082680 179.353226,120.122063 193.962555,120.080887 
	C214.960236,120.021698 235.957703,119.864716 256.955353,119.837807 
	C260.244476,119.833588 263.150482,119.646240 265.283661,116.556778 
	C266.479828,114.824371 268.820953,113.712357 270.360199,115.829079 
	C272.860168,119.266991 276.439026,119.645378 279.907288,119.650688 
	C321.738373,119.714760 363.574615,120.003845 405.399475,119.459572 
	C442.889557,118.971703 480.384399,119.209534 517.866272,118.553276 
	C561.354614,117.791862 604.849915,118.218788 648.329651,117.453087 
	C687.819458,116.757660 727.306885,116.915771 766.794434,116.582901 
	C793.280273,116.359634 819.764526,115.941933 846.250549,115.767586 
	C849.214539,115.748077 853.505371,114.084557 854.318115,119.087807 
	C854.768616,121.861343 849.877991,124.847382 845.581665,124.793678 
	C832.763489,124.633476 819.945557,124.732910 807.124329,124.550110 
	C780.130676,124.165253 753.115723,123.902451 726.131897,124.539658 
	C689.808838,125.397423 653.490295,124.730812 617.172974,125.173340 
	C615.698853,125.191307 614.226379,125.334625 612.124329,125.455772 
	C613.233765,162.363403 613.272583,199.076874 613.285217,235.830780 
	C631.437927,235.295685 643.085693,245.220428 652.662781,258.168060 
	C662.019104,270.817230 667.189697,284.945496 663.175415,300.848877 
	C657.876953,321.839783 644.795654,336.278870 624.672424,344.299774 
	C622.995117,344.968323 621.274658,345.528717 618.643860,346.473480 
	C623.257812,349.174011 627.174316,351.502777 631.124878,353.772339 
	C648.737976,363.890839 666.361389,373.991425 683.978333,384.103271 
	C684.844849,384.600647 685.699646,385.121552 686.534729,385.669861 
	C688.287659,386.820862 690.022339,388.260834 688.905884,390.521332 
	C687.568176,393.229767 685.260986,392.213623 683.298950,391.186127 
	C668.692017,383.536224 654.103088,375.852051 639.518005,368.160431 
	C633.035217,364.741638 626.587280,361.256500 620.094604,357.856812 
	C618.522339,357.033569 616.971497,356.002380 615.160400,355.989807 
	C613.876770,357.684937 614.384094,359.407379 614.380371,361.007050 
	C614.332825,381.506042 614.305969,402.005219 614.350525,422.504181 
	C614.359192,426.494202 614.717224,430.482605 614.875244,434.473297 
	C615.209106,442.909241 616.394043,451.409760 612.492310,459.681396 
	C629.065430,469.110504 645.277039,478.278900 661.432068,487.545868 
	C671.108093,493.096313 680.700745,498.792358 690.319458,504.442413 
	C692.616028,505.791473 695.659058,507.174225 693.493835,510.452484 
	C691.605164,513.312012 689.164856,516.171204 684.914490,513.527588 
	C674.731018,507.193756 664.399780,501.093567 654.293091,494.640869 
	C639.410400,485.138947 624.595947,475.524445 609.938232,465.681183 
	C607.208374,463.847931 605.835083,464.215057 603.600952,466.157867 
	C585.755432,481.676666 567.838379,497.113953 549.834961,512.449097 
	C547.690308,514.275940 545.163940,518.490601 542.046631,515.063171 
	C538.753845,511.442810 543.520325,509.824280 545.514526,507.816620 
	C551.033142,502.260895 556.667053,496.819366 562.272705,491.350525 
	C576.690491,477.284760 590.502991,462.574493 606.237122,449.911163 
	C607.664246,448.762634 607.651245,447.400360 607.688477,445.916138 
	C608.403015,417.413086 606.636475,388.943848 606.487061,360.451996 
	C606.478516,358.821136 605.937134,357.193115 605.651672,355.607849 
	C603.697205,354.919678 602.750427,356.383270 601.639282,357.198456 
	C583.916016,370.200836 565.519897,382.308258 548.903259,396.786438 
	C547.904358,397.656769 546.773132,398.392365 545.639282,399.085693 
	C544.572388,399.738098 543.364075,399.850464 542.363281,399.008636 
	C541.282837,398.099854 540.770996,396.905243 541.267090,395.440155 
	C542.260803,392.505371 544.011902,390.337097 546.699402,388.597015 
	C565.094055,376.687195 580.687622,361.273529 597.665100,347.586334 
	C598.137146,347.205750 598.465759,346.647217 598.938049,346.079315 
	C565.238586,338.106720 548.727417,298.600037 558.657410,273.259888 
	C565.126953,256.750397 592.894165,233.307373 605.368713,235.930695 
	C607.299622,231.525986 606.825256,226.803314 606.508911,222.276398 
	C605.485291,207.628494 605.954529,192.966110 605.647034,178.313660 
	C605.314941,162.492035 604.777466,146.669785 604.803467,130.848587 
	C604.811523,125.952919 602.992554,125.061089 598.677368,125.081352 
	C560.513062,125.260551 522.347595,125.175156 484.183258,125.349831 
	C427.025513,125.611435 369.868164,125.990387 312.711182,126.391090 
	C300.889038,126.473969 289.069824,126.957390 277.247559,127.062340 
	C274.258514,127.088882 272.235291,128.285629 270.395782,130.412491 
	C245.456177,159.247879 220.502625,188.071274 195.523178,216.872177 
	C191.595459,221.400772 187.693130,225.974777 183.450348,230.197510 
	C181.103378,232.533386 180.244263,234.926956 180.308670,238.150864 
	C181.373688,291.460663 180.761368,344.787018 181.528061,398.093109 
	C182.242249,447.748291 181.988220,497.399078 182.371323,547.050415 
	C182.750504,596.194092 183.022980,645.338562 183.306183,694.482910 
	C183.321121,697.074707 183.075760,699.348206 186.730545,699.814941 
	C188.866913,700.087830 190.185760,702.303833 191.697845,703.836731 
	C209.016647,721.393616 226.384171,738.903198 243.591309,756.569031 
	C250.002487,763.151184 256.908936,769.139954 263.912964,775.049133 
	C267.167084,777.794678 270.793427,780.093933 271.916229,784.842041 
	C272.596802,787.720032 275.680176,787.647034 278.248169,787.605713 
	C291.569183,787.391235 304.889862,787.064209 318.211639,787.006836 
	C364.041809,786.809509 409.876740,787.045288 455.701294,786.454224 
	C487.526520,786.043701 519.362671,786.302673 551.172913,785.482971 
	C586.148071,784.581604 621.127502,784.232117 656.101318,783.520203 
	C694.244873,782.743774 732.393066,782.290833 770.532043,781.489990 
	C810.171265,780.657532 849.812378,780.185120 889.450195,779.465820 
	C927.755066,778.770752 966.054321,777.808716 1004.367371,777.610413 
	C1010.533691,777.578430 1011.920959,778.718811 1012.747681,784.758057 
	C1013.157288,787.750610 1011.039856,788.573242 1008.759583,788.702454 
	C1004.271362,788.956848 999.768127,789.004089 995.270508,789.023804 
	C965.606323,789.153748 935.936096,788.920166 906.279053,789.442688 
	C863.124817,790.203186 819.963440,789.804504 776.816040,790.477356 
	C722.994507,791.316528 669.173462,791.015808 615.353455,791.400879 
	C579.201782,791.659485 543.042236,791.666138 506.903076,792.509033 
	C485.411682,793.010376 463.916290,792.849731 442.436676,793.466492 
	C407.135864,794.480103 371.827545,794.888489 336.521698,795.541199 
	C299.216522,796.230896 261.910522,796.847961 224.605789,797.525391 
	C173.806747,798.447876 123.015251,799.797974 72.207726,800.292358 
	C71.380753,800.300415 70.555771,800.513123 69.364929,800.815186 
	C46.333286,801.000000 23.666569,801.000000 1.000000,801.000000 
	C1.000000,797.249451 1.000000,793.603882 1.000000,789.479187 
M564.342102,299.070709 
	C566.872620,316.624298 575.959900,329.526093 592.479248,336.121826 
	C609.036987,342.732849 624.857910,339.339935 638.545898,328.677246 
	C654.109314,316.553680 660.147400,300.146759 655.188416,280.773682 
	C650.477295,262.369171 641.098389,247.986084 620.464783,244.203568 
	C607.824219,241.886322 595.957581,244.291229 585.734497,251.111069 
	C569.252441,262.106293 562.689819,278.477722 564.342102,299.070709 
M207.503357,127.415695 
	C200.188950,127.603210 192.871948,127.995010 185.561127,127.901848 
	C181.155060,127.845695 179.929565,129.495148 179.971497,133.818573 
	C180.232971,160.782333 180.216278,187.748703 180.336685,214.714020 
	C180.343765,216.298706 179.837540,217.999374 181.146439,219.938843 
	C205.873306,189.223175 230.455048,158.687775 255.651688,127.388557 
	C239.091888,127.388557 223.797104,127.388557 207.503357,127.415695 
M172.846863,709.856079 
	C148.135529,734.825378 125.571968,761.714539 102.281067,788.141418 
	C125.300674,788.213806 147.899612,789.221130 170.505615,788.128845 
	C175.177673,787.903076 175.848785,785.910034 175.819565,781.951599 
	C175.651260,759.159363 175.695190,736.365601 175.615143,713.572571 
	C175.609039,711.835693 176.051392,709.976135 174.876190,708.166748 
	C174.276779,708.646179 173.774429,709.047974 172.846863,709.856079 
M225.499329,787.705139 
	C238.209946,787.705139 250.920578,787.705139 265.078613,787.705139 
	C239.682083,760.033752 210.264221,739.413147 184.109573,714.625000 
	C184.109573,738.464722 184.131378,761.244629 184.087082,784.024414 
	C184.080093,787.617310 186.311417,787.977417 189.050156,787.955078 
	C200.866364,787.858643 212.682785,787.786011 225.499329,787.705139 
z"/>
<path fill="#000000" opacity="1.000000" stroke="none" 
	d="
M679.952454,548.438782 
	C679.141357,540.858826 681.169189,534.815979 687.208435,530.551331 
	C691.667725,527.402344 697.867126,527.446838 701.158386,530.488647 
	C702.695251,531.909058 703.941345,533.618896 702.845093,535.749756 
	C701.867981,537.649048 700.013611,536.905640 698.384521,536.671265 
	C693.202393,535.925781 689.513794,537.814636 687.897095,542.021973 
	C687.144226,543.981018 686.834961,545.925232 688.688354,547.500732 
	C690.465759,549.011658 692.386902,548.926331 694.206909,547.659241 
	C700.770569,543.089844 705.685242,537.326660 705.650940,528.891479 
	C705.616943,520.517395 706.942810,512.354675 708.419678,504.182587 
	C708.844727,501.830536 709.313538,499.386230 712.533752,499.579529 
	C715.736633,499.771759 716.568726,502.138580 716.867065,504.767761 
	C717.660339,511.759155 718.011536,518.947876 715.692261,525.532959 
	C713.269897,532.410645 714.201538,538.559204 716.700439,544.895630 
	C717.127625,545.979004 717.652405,547.027954 718.018188,548.130615 
	C718.875671,550.715637 721.048523,554.079102 717.476746,555.536133 
	C714.308411,556.828613 712.861328,553.260193 711.330566,550.916504 
	C710.260315,549.278015 710.167542,547.080994 708.425232,545.775024 
	C706.230469,546.334656 705.479065,548.408875 704.113708,549.773132 
	C700.757812,553.126221 697.162476,555.852051 692.269470,556.651001 
	C685.695862,557.724365 682.334717,555.709290 679.952454,548.438782 
z"/>
<path fill="#000000" opacity="1.000000" stroke="none" 
	d="
M642.051514,540.104919 
	C637.461304,552.116394 634.687317,564.171936 632.441528,576.452515 
	C630.837646,585.222839 625.818848,586.742798 618.496399,581.735779 
	C616.440002,580.329651 614.276001,579.020020 612.454224,577.347107 
	C610.063110,575.151428 609.475098,572.235596 611.939880,569.899475 
	C614.228210,567.730652 617.036438,567.706970 619.428711,570.301392 
	C620.863953,571.857910 622.023499,573.824219 624.997070,574.154846 
	C628.338684,568.299072 627.512146,561.609619 628.763794,555.066772 
	C624.880310,554.107300 621.425598,555.200562 618.005859,554.497498 
	C612.915833,553.451050 609.457275,550.667664 607.928101,545.915161 
	C606.367615,541.065430 609.157776,537.640076 612.733887,534.796326 
	C615.493591,532.601746 618.500854,530.857788 621.997925,530.098572 
	C624.731689,529.505066 627.297119,529.899841 629.627502,531.477417 
	C631.266968,532.587341 632.277039,534.114319 631.776733,536.139404 
	C631.217285,538.403259 629.432434,538.709595 627.440063,538.394470 
	C624.534424,537.934875 621.790955,538.202454 619.416077,540.139526 
	C618.279053,541.067017 616.642822,541.864868 617.058899,543.617126 
	C617.474792,545.368225 619.027710,546.193848 620.735352,546.593994 
	C625.602844,547.734375 630.603394,545.187744 632.853394,540.269714 
	C633.806519,538.186340 634.931580,536.332825 637.400513,536.189026 
	C639.803833,536.049072 641.588989,537.099426 642.051514,540.104919 
z"/>
<path fill="#000000" opacity="1.000000" stroke="none" 
	d="
M491.823303,545.292480 
	C490.865173,541.541321 491.527374,538.793335 493.051788,535.489441 
	C495.490997,530.202698 495.279663,524.097168 494.470520,518.287476 
	C494.013214,515.004150 494.428802,512.419556 498.020111,511.867828 
	C502.201294,511.225464 502.252350,514.550903 502.630585,517.398499 
	C503.351135,522.823303 501.351379,528.267517 502.659973,534.232666 
	C506.050995,534.015381 509.319641,533.871521 512.574890,533.578369 
	C515.639771,533.302368 516.098572,530.688904 516.432800,528.470764 
	C517.049683,524.375732 517.922913,520.302429 517.720886,516.090027 
	C517.563843,512.815735 517.940430,508.989227 522.254517,509.294525 
	C526.454956,509.591827 526.418518,513.272034 525.958862,516.634644 
	C524.186157,529.601135 520.634399,542.388123 522.185791,555.695312 
	C522.426758,557.762329 522.410583,560.596130 519.663574,560.950745 
	C516.975159,561.297852 516.447205,558.511658 515.728394,556.549927 
	C514.458862,553.084839 514.009705,549.430298 513.840088,545.770142 
	C513.704590,542.846924 512.286133,541.985107 509.603271,542.548828 
	C504.970978,543.522156 499.686493,543.473450 500.204132,550.701294 
	C500.373688,553.068665 498.704529,555.286194 495.810669,555.123718 
	C492.923035,554.961548 492.045868,552.710510 491.830688,550.220581 
	C491.702271,548.734314 491.818726,547.226929 491.823303,545.292480 
z"/>
<path fill="#000000" opacity="1.000000" stroke="none" 
	d="
M645.529053,539.764404 
	C648.219604,534.417419 651.523682,530.112793 656.546387,527.352844 
	C662.513550,524.073975 669.795044,524.777588 673.654480,529.007629 
	C676.710999,532.357666 677.011536,537.109436 674.413147,541.003052 
	C671.225281,545.779907 663.981323,547.851440 657.818909,545.699951 
	C656.263245,545.156799 654.762024,544.457642 653.265442,543.842407 
	C649.910889,548.414062 653.839966,555.341431 660.543823,556.624390 
	C663.999023,557.285522 667.485229,557.114136 670.923889,556.075073 
	C673.142212,555.404785 675.441956,554.982544 677.725159,554.555908 
	C679.560059,554.213013 681.543640,553.911072 682.148315,556.412170 
	C682.625916,558.387939 681.916992,559.917297 680.155579,561.092407 
	C672.112671,566.458130 657.479248,566.072510 649.763794,560.224182 
	C643.352112,555.364075 641.874146,548.604431 645.529053,539.764404 
M658.548279,535.616272 
	C657.391724,536.838196 657.885803,537.740906 659.232239,538.170532 
	C662.461121,539.200867 665.255554,538.732361 667.289062,535.504211 
	C664.487671,532.250305 661.797974,533.199951 658.548279,535.616272 
z"/>
<path fill="#000000" opacity="1.000000" stroke="none" 
	d="
M549.615051,527.976440 
	C555.580017,528.539856 559.070312,531.978577 561.344543,536.601440 
	C563.952454,541.902283 566.882141,546.807190 572.004395,550.067627 
	C573.277039,550.877686 574.619385,551.798462 573.903076,553.643738 
	C573.310486,555.170105 571.996948,555.894104 570.455017,556.193787 
	C567.561646,556.756165 565.251953,555.535217 563.220398,553.664917 
	C560.921570,551.548645 558.686462,549.363159 556.206726,547.001282 
	C553.981079,548.907532 551.724121,551.091980 549.217590,552.937439 
	C543.161133,557.396545 535.394714,557.190186 531.499390,552.640564 
	C527.117676,547.522888 527.904358,540.397949 533.338196,534.685852 
	C537.676453,530.125427 542.631348,527.189819 549.615051,527.976440 
M548.740784,535.006592 
	C543.970947,534.943237 540.574951,537.321350 537.866699,541.022583 
	C536.703064,542.612732 535.938660,544.152222 537.243347,546.009338 
	C538.644897,548.004333 540.638000,548.068054 542.601318,547.344177 
	C547.132080,545.673523 549.915527,542.260437 551.373047,537.752197 
	C551.893494,536.142334 551.834961,534.653564 548.740784,535.006592 
z"/>
<path fill="#000000" opacity="1.000000" stroke="none" 
	d="
M584.261353,533.659729 
	C586.493225,533.208557 586.561340,533.259888 588.375916,530.851501 
	C590.390625,528.177429 592.696960,526.185425 596.319641,526.743164 
	C600.044006,527.316650 601.550049,530.198059 602.331543,533.301270 
	C603.789185,539.088806 604.918945,544.960815 606.105164,550.813843 
	C606.460327,552.566284 606.062988,554.229126 604.209595,554.971924 
	C602.035706,555.843140 600.816833,554.507446 599.793945,552.806519 
	C598.569092,550.769836 598.054626,548.551270 597.605103,546.235962 
	C597.023926,543.242126 597.158081,539.889160 594.098755,537.324829 
	C589.261536,540.399536 586.736145,545.279602 583.812622,549.837769 
	C582.632629,551.677551 582.042114,554.795898 578.958008,553.844238 
	C576.065308,552.951599 575.515686,550.417480 575.497803,547.414673 
	C575.467163,542.261658 577.026184,537.215576 576.250610,532.024414 
	C575.964783,530.111511 577.106934,528.849731 579.084412,528.625732 
	C582.600952,528.227417 583.746216,530.453674 584.261353,533.659729 
z"/>
</svg>